<svg width="69" height="73" viewBox="0 0 69 73" fill="none" xmlns="http://www.w3.org/2000/svg">
<path fill-rule="evenodd" clip-rule="evenodd" d="M65.9585 46.0139C66.0321 46.265 66.0685 46.5259 66.0685 46.7888V47.8772C66.0685 48.1235 66.038 48.3672 65.9746 48.6038C66.0256 48.8153 66.0519 49.0321 66.0519 49.2505V50.1247C66.0519 50.3373 66.0294 50.5482 65.9816 50.7543C66.0455 50.9904 66.0755 51.2335 66.0755 51.4798V52.1426C66.0755 53.5428 65.021 54.7074 63.6283 54.8453L36.4407 57.5442C36.3067 57.5635 36.1713 57.5732 36.036 57.5732C35.9002 57.5748 35.7646 57.5662 35.6301 57.5479L2.47275 54.5678C1.06947 54.4417 0 53.2718 0 51.8625V50.9882C0 50.853 0.00912334 50.7183 0.028014 50.5847C0.00912334 50.451 0 50.3163 0 50.1811V49.3063C0 49.1985 0.00633267 49.09 0.0191053 48.9827C0.00627901 48.8722 0 48.7605 0 48.6489V47.48C0 47.3094 0.015617 47.1387 0.0469584 46.9708C0.015295 46.8001 0 46.6268 0 46.4523V45.284C0 44.1109 0.719832 43.1003 1.82826 42.7171L4.1113 41.9277V33.5965C4.1113 32.7335 4.48648 31.9714 5.1703 31.4444L10.8862 27.0439C11.1804 26.8173 11.511 26.6533 11.8608 26.5608V24.484C11.8608 24.1535 11.9195 23.8277 12.0346 23.5209C11.9177 23.2117 11.8608 22.8835 11.8608 22.5479V20.9412C11.8608 20.547 11.943 20.1608 12.1038 19.8066C11.9413 19.4523 11.8608 19.0663 11.8608 18.6676V17.061C11.8608 16.6848 11.9351 16.3156 12.0818 15.9743C11.9339 15.6327 11.8608 15.2634 11.8608 14.8844V13.2777C11.8608 12.9093 11.9314 12.5477 12.0721 12.2122C11.9308 11.8765 11.8608 11.515 11.8608 11.145V9.53833C11.8608 8.5236 12.3891 7.63574 13.2808 7.15156L25.7473 0.382736C25.8291 0.335026 25.9136 0.292093 25.9996 0.25238C26.4877 0.0271408 27.0226 -0.0512133 27.5533 0.0329898C28.0364 0.109572 28.4872 0.313613 28.8626 0.627778C29.0448 0.776274 29.2072 0.94731 29.3447 1.13788L35.1853 8.20015C35.3627 8.41466 35.5023 8.64338 35.6041 8.8859L40.0485 6.3142C40.1397 6.25726 40.2345 6.20627 40.3313 6.15953C40.8172 5.925 41.3518 5.83807 41.8857 5.91433C42.374 5.98404 42.8312 6.18373 43.2133 6.4964C43.3967 6.64253 43.5608 6.81147 43.7002 7.00005L47.9748 12.0503C48.4021 12.555 48.6177 13.1436 48.6177 13.8049V17.1345L49.9467 18.6949V13.5663C49.9467 12.4049 50.6515 11.4029 51.7445 11.0103C52.837 10.6178 54.0193 10.9426 54.7578 11.8381L60.6262 18.9522C61.0394 19.453 61.2471 20.0312 61.2471 20.6804V40.5946L64.3308 41.7855C65.3934 42.196 66.0685 43.1808 66.0685 44.3191V45.2303C66.0685 45.4971 66.0326 45.7606 65.9585 46.0139Z" fill="#030405"/>
<path fill-rule="evenodd" clip-rule="evenodd" d="M6.82716 33.5965L12.543 29.1958V40.4482L7.42425 42.718L6.82716 42.7128V33.5965Z" fill="#FEE5A4"/>
<path fill-rule="evenodd" clip-rule="evenodd" d="M14.5766 9.53829V11.145L27.1308 5.38766V2.72203L14.5766 9.53829Z" fill="#C7952B"/>
<path fill-rule="evenodd" clip-rule="evenodd" d="M33.0926 9.93099V10.7343L27.1308 5.38762V2.72205L33.0926 9.93099Z" fill="#FEE5A4"/>
<path fill-rule="evenodd" clip-rule="evenodd" d="M14.5766 13.2776V14.8843L27.1308 10.2263V7.56076L14.5766 13.2776Z" fill="#C7952B"/>
<path fill-rule="evenodd" clip-rule="evenodd" d="M33.1791 13.704V14.6513L27.1304 10.2263V7.56078L33.1791 13.704Z" fill="#FEE5A4"/>
<path fill-rule="evenodd" clip-rule="evenodd" d="M14.5769 17.0609V18.6676L27.1306 15.0767V12.4111L14.5769 17.0609Z" fill="#C7952B"/>
<path fill-rule="evenodd" clip-rule="evenodd" d="M33.2654 17.4004V18.7484L27.1308 15.0767V12.4111L33.2654 17.4004Z" fill="#FEE5A4"/>
<path fill-rule="evenodd" clip-rule="evenodd" d="M14.5768 20.9411V22.5478L27.1305 19.8623V17.1967L14.5768 20.9411Z" fill="#C7952B"/>
<path fill-rule="evenodd" clip-rule="evenodd" d="M33.217 21.3348V22.6322L27.1307 19.8623V17.1967L33.217 21.3348Z" fill="#FEE5A4"/>
<path fill-rule="evenodd" clip-rule="evenodd" d="M14.5767 24.484V26.6661L27.1307 24.8262V22.2579L14.5767 24.484Z" fill="#C7952B"/>
<path fill-rule="evenodd" clip-rule="evenodd" d="M32.8515 24.7087L31.1081 25.8786L27.1307 24.8264L27.1305 22.2579L32.8515 24.7087Z" fill="#FEE5A4"/>
<path fill-rule="evenodd" clip-rule="evenodd" d="M14.5767 28.2925V30.4746L27.1308 29.818V27.2497L14.5767 28.2925Z" fill="#C7952B"/>
<path fill-rule="evenodd" clip-rule="evenodd" d="M30.134 27.8977V30.0799L27.1307 29.818V27.2497L30.134 27.8977Z" fill="#FEE5A4"/>
<path fill-rule="evenodd" clip-rule="evenodd" d="M33.0051 13.5274L41.5044 8.60939L41.5045 19.8549L33.0051 24.7729L33.0051 13.5274Z" fill="#C7952B"/>
<path fill-rule="evenodd" clip-rule="evenodd" d="M41.5043 19.8547L45.9017 17.4142L45.9017 13.8046L41.5045 8.60967L41.5043 19.8547Z" fill="#FEE5A4"/>
<path fill-rule="evenodd" clip-rule="evenodd" d="M52.6627 13.566L58.5311 20.6801L58.5308 40.8047L52.6627 38.1888L52.6627 13.566Z" fill="#C7952B"/>
<path fill-rule="evenodd" clip-rule="evenodd" d="M36.0231 33.766L2.71603 45.2839L2.71602 46.4525L36.0231 37.9051L36.0231 33.766Z" fill="#C7952B"/>
<path fill-rule="evenodd" clip-rule="evenodd" d="M36.0231 33.7658L63.3528 44.319L63.3529 45.2305L36.023 37.905L36.0231 33.7658Z" fill="#FEE5A4"/>
<path fill-rule="evenodd" clip-rule="evenodd" d="M36.0229 40.131L2.71583 47.48L2.71582 48.6487L36.0229 43.764L36.0229 40.131Z" fill="#C7952B"/>
<path fill-rule="evenodd" clip-rule="evenodd" d="M36.0231 40.131L63.3527 46.7886L63.3527 47.8769L36.0231 43.764L36.0231 40.131Z" fill="#FEE5A4"/>
<path fill-rule="evenodd" clip-rule="evenodd" d="M36.023 46.7111L2.71587 49.3063L2.71587 50.1809L36.023 49.5848L36.023 46.7111Z" fill="#C7952B"/>
<path fill-rule="evenodd" clip-rule="evenodd" d="M36.0232 46.7111L63.3358 49.2501L63.3359 50.1246L36.0231 49.5849L36.0232 46.7111Z" fill="#FEE5A4"/>
<path fill-rule="evenodd" clip-rule="evenodd" d="M36.0231 51.9822L2.71598 50.9879L2.71597 51.8624L36.0231 54.8559L36.0231 51.9822Z" fill="#C7952B"/>
<path fill-rule="evenodd" clip-rule="evenodd" d="M36.023 51.9822L63.3596 51.4795L63.3595 52.1426L36.023 54.856L36.023 51.9822Z" fill="#FEE5A4"/>
<path fill-rule="evenodd" clip-rule="evenodd" d="M20.1242 31.9814H27.1306V34.5321L20.1242 31.9814Z" fill="#C7952B"/>
<path fill-rule="evenodd" clip-rule="evenodd" d="M30.1243 31.9814H27.1306V34.5321L30.1153 33.1833L30.1243 31.9814Z" fill="#FEE5A4"/>
<path d="M4.9419 67.9479H7.45812V68.3989H4.9419V72.292H3.79059V64.4346H8.43142V65.2298L6.23559 64.8619C5.83996 64.8619 5.40875 64.9291 4.9419 65.0637V67.9479Z" fill="#C7952B"/>
<path d="M9.64547 72.2919V64.4345H10.7374V72.2919H9.64547Z" fill="#C7952B"/>
<path d="M14.1829 68.5413V72.2919H13.0197V64.4345H15.5834C16.3826 64.4345 17.0374 64.6126 17.5477 64.9686C18.0582 65.3247 18.3133 65.7935 18.3133 66.3751C18.3133 66.9567 18.1096 67.4157 17.7021 67.7519C17.2945 68.0882 16.7426 68.3197 16.0463 68.4463L19.2272 72.2919L17.8504 72.4581L15.0968 68.5413H14.1829ZM14.1829 68.1852H14.9425C16.3668 68.1852 17.0789 67.6234 17.0789 66.4997C17.0789 66.3099 17.0315 66.0962 16.9365 65.8588C16.7545 65.3603 16.3668 65.032 15.7733 64.8737C15.2352 64.8737 14.7051 64.9409 14.1829 65.0755V68.1852Z" fill="#C7952B"/>
<path d="M21.5926 65.7995C21.5926 66.1476 21.7291 66.4701 22.0021 66.7668C22.2751 67.0635 22.6074 67.3246 22.9991 67.5501C23.3907 67.7756 23.7805 68.0051 24.1682 68.2386C24.5559 68.472 24.8863 68.7588 25.1593 69.0991C25.4322 69.4393 25.5688 69.8152 25.5688 70.2267C25.5688 70.8755 25.3294 71.4057 24.8507 71.8171C24.3719 72.2286 23.7251 72.4343 22.91 72.4343C22.095 72.4343 21.288 72.28 20.4888 71.9714V71.4135C21.2959 71.8171 21.9823 72.0189 22.5481 72.0189C23.1138 72.0189 23.555 71.8804 23.8715 71.6035C24.188 71.3265 24.3462 70.9427 24.3462 70.4522C24.3462 70.1198 24.2157 69.8172 23.9546 69.5442C23.6934 69.2712 23.3769 69.0338 23.005 68.832C22.6331 68.6302 22.2612 68.4225 21.8893 68.2089C21.5174 67.9952 21.2009 67.7242 20.9398 67.3958C20.6786 67.0675 20.5481 66.6698 20.5481 66.203C20.5481 65.7361 20.7558 65.301 21.1712 64.8974C21.5866 64.4939 22.2058 64.2921 23.0288 64.2921C23.5668 64.2921 24.2473 64.4147 25.0702 64.66L24.9515 65.4671C23.8833 65.0082 22.9694 64.7787 22.2098 64.7787C21.7983 64.9765 21.5926 65.3168 21.5926 65.7995Z" fill="#C7952B"/>
<path d="M30.1655 72.292H29.0142V65.0043C28.7452 64.9411 28.4762 64.9094 28.2071 64.9094L26.6047 65.2773L26.5335 64.4346H32.6462L32.5868 65.2773L30.9726 64.9094C30.7036 64.9094 30.4346 64.9411 30.1655 65.0043V72.292Z" fill="#C7952B"/>
<path d="M37.8007 65.7995C37.8007 66.1476 37.9373 66.4701 38.2103 66.7668C38.4832 67.0635 38.8156 67.3246 39.2072 67.5501C39.5989 67.7756 39.9886 68.0051 40.3764 68.2386C40.7641 68.472 41.0944 68.7588 41.3674 69.0991C41.6404 69.4393 41.7769 69.8152 41.7769 70.2267C41.7769 70.8755 41.5375 71.4057 41.0588 71.8171C40.5801 72.2286 39.9332 72.4343 39.1182 72.4343C38.3032 72.4343 37.4961 72.28 36.6969 71.9714V71.4135C37.504 71.8171 38.1905 72.0189 38.7562 72.0189C39.322 72.0189 39.7631 71.8804 40.0796 71.6035C40.3962 71.3265 40.5544 70.9427 40.5544 70.4522C40.5544 70.1198 40.4239 69.8172 40.1627 69.5442C39.9016 69.2712 39.5851 69.0338 39.2132 68.832C38.8413 68.6302 38.4694 68.4225 38.0975 68.2089C37.7256 67.9952 37.4091 67.7242 37.1479 67.3958C36.8868 67.0675 36.7563 66.6698 36.7563 66.203C36.7563 65.7361 36.964 65.301 37.3794 64.8974C37.7948 64.4939 38.414 64.2921 39.2369 64.2921C39.775 64.2921 40.4555 64.4147 41.2784 64.66L41.1597 65.4671C40.0915 65.0082 39.1775 64.7787 38.418 64.7787C38.0065 64.9765 37.8007 65.3168 37.8007 65.7995Z" fill="#C7952B"/>
<path d="M46.3737 72.292H45.2224V65.0043C44.9533 64.9411 44.6843 64.9094 44.4153 64.9094L42.8129 65.2773L42.7417 64.4346H48.8543L48.795 65.2773L47.1808 64.9094C46.9117 64.9094 46.6427 64.9411 46.3737 65.0043V72.292Z" fill="#C7952B"/>
<path d="M50.1871 72.292V64.4346H54.9467L54.8281 65.2298L52.6203 64.8619C52.2325 64.8619 51.8052 64.9291 51.3384 65.0637V67.9479H53.9732V68.3989H51.3384V71.8647L55.018 71.4968L54.8989 72.292H50.1871Z" fill="#C7952B"/>
<path d="M62.285 66.4761C62.285 67.2357 62.006 67.8114 61.4484 68.2031C60.8908 68.5947 60.133 68.7906 59.1756 68.7906H58.1549V72.292H57.0032V64.4346H59.555C60.3547 64.4346 61.0094 64.6166 61.5198 64.9806C62.0301 65.3446 62.285 65.8431 62.285 66.4761ZM58.1549 68.4464H59.211C59.5829 68.4464 59.9012 68.3751 60.1663 68.2328C60.4314 68.0903 60.6235 67.9083 60.7421 67.6867C60.9557 67.2911 61.0625 66.9073 61.0625 66.5354C61.0625 66.3535 61.0153 66.1358 60.9203 65.8826C60.7303 65.3604 60.3386 65.0202 59.745 64.8619C59.1756 64.8619 58.6454 64.9291 58.1549 65.0637V68.4464Z" fill="#C7952B"/>
</svg>
